<?xml version="1.0" encoding="utf-8"?>
<svg xmlns="http://www.w3.org/2000/svg" width="840" height="500" viewBox="0 0 840 500" role="img" aria-labelledby="title desc">
  <title id="title">The last try: what passed?</title>
  <desc id="desc">Four hard-gate groups failed. Mean comprehension, positive information count, order robustness, and the greedy anchor passed; the remaining registered criteria failed.</desc>
  <style>
    text { font-family: Inter, ui-sans-serif, system-ui, -apple-system, BlinkMacSystemFont, "Segoe UI", sans-serif; fill: #172033; }
    .title { font-size: 24px; font-weight: 700; }
    .subtitle { font-size: 14px; fill: #586174; }
    .header { font-size: 12px; font-weight: 700; fill: #737b8c; letter-spacing: .04em; text-transform: uppercase; }
    .group { font-size: 15px; font-weight: 700; }
    .measure, .value { font-size: 14px; }
    .value { font-variant-numeric: tabular-nums; }
    .status { font-size: 12px; font-weight: 800; text-anchor: middle; }
    .pass { fill: #047857; }
    .fail { fill: #b42318; }
  </style>
  <rect width="840" height="500" fill="#ffffff"/>
  <text x="24" y="34" class="title">The last try: what passed?</text>
  <text x="24" y="58" class="subtitle">Four hard-gate groups failed; both safeguards passed</text>

  <text x="24" y="88" class="header">Hard group</text>
  <text x="190" y="88" class="header">Criterion</text>
  <text x="510" y="88" class="header">Observed / required</text>
  <text x="787" y="88" class="header" text-anchor="middle">Result</text>

  <rect x="16" y="98" width="808" height="68" rx="8" fill="#f7f8fa"/>
  <text x="24" y="126" class="group">Comprehension</text>
  <text x="190" y="120" class="measure">Mean balanced accuracy</text>
  <text x="510" y="120" class="value">0.575684 / ≥ 0.55</text>
  <rect x="758" y="104" width="58" height="24" rx="12" fill="#dff6eb"/>
  <text x="787" y="121" class="status pass">PASS</text>
  <text x="190" y="148" class="measure">Median balanced accuracy</text>
  <text x="510" y="148" class="value">0.593750 / ≥ 0.60</text>
  <rect x="758" y="132" width="58" height="24" rx="12" fill="#fde7e5"/>
  <text x="787" y="149" class="status fail">FAIL</text>

  <rect x="16" y="174" width="808" height="68" rx="8" fill="#f7f8fa"/>
  <text x="24" y="202" class="group">Calibration</text>
  <text x="190" y="196" class="measure">Mean calibrated-minus-fixed gain</text>
  <text x="510" y="196" class="value">+0.025391 / ≥ +0.030</text>
  <rect x="758" y="180" width="58" height="24" rx="12" fill="#fde7e5"/>
  <text x="787" y="197" class="status fail">FAIL</text>
  <text x="190" y="224" class="measure">Concepts with positive gain</text>
  <text x="510" y="224" class="value">9/16 / ≥ 10/16</text>
  <rect x="758" y="208" width="58" height="24" rx="12" fill="#fde7e5"/>
  <text x="787" y="225" class="status fail">FAIL</text>

  <rect x="16" y="250" width="808" height="68" rx="8" fill="#f7f8fa"/>
  <text x="24" y="278" class="group">Exact-H ranking</text>
  <text x="190" y="272" class="measure">Median selected-minus-mean advantage</text>
  <text x="510" y="272" class="value">+0.209453 bit / ≥ +0.25</text>
  <rect x="758" y="256" width="58" height="24" rx="12" fill="#fde7e5"/>
  <text x="787" y="273" class="status fail">FAIL</text>
  <text x="190" y="300" class="measure">Concepts with positive advantage</text>
  <text x="510" y="300" class="value">11/16 / ≥ 10/16</text>
  <rect x="758" y="284" width="58" height="24" rx="12" fill="#dff6eb"/>
  <text x="787" y="301" class="status pass">PASS</text>

  <rect x="16" y="326" width="808" height="44" rx="8" fill="#f7f8fa"/>
  <text x="24" y="354" class="group">Randomization</text>
  <text x="190" y="354" class="measure">Exact tie-inclusive tail</text>
  <text x="510" y="354" class="value">p = 0.121979 / &lt; 0.05</text>
  <rect x="758" y="338" width="58" height="24" rx="12" fill="#fde7e5"/>
  <text x="787" y="355" class="status fail">FAIL</text>

  <line x1="16" y1="397" x2="824" y2="397" stroke="#d8dce5"/>
  <text x="24" y="424" class="header">Safeguards</text>
  <text x="190" y="424" class="measure">Rotation-order |ρ|</text>
  <text x="510" y="424" class="value">0.005133 / ≤ 0.20</text>
  <rect x="758" y="408" width="58" height="24" rx="12" fill="#dff6eb"/>
  <text x="787" y="425" class="status pass">PASS</text>
  <text x="190" y="462" class="measure">Greedy-anchor median</text>
  <text x="510" y="462" class="value">+2.551590 bits / ≥ +1.0</text>
  <rect x="758" y="446" width="58" height="24" rx="12" fill="#dff6eb"/>
  <text x="787" y="463" class="status pass">PASS</text>
</svg>
